<?xml version="1.0" encoding="utf-8"?>
<!-- Generator: Adobe Illustrator 25.2.0, SVG Export Plug-In . SVG Version: 6.00 Build 0)  -->
<svg version="1.1" id="Layer_1" xmlns="http://www.w3.org/2000/svg" xmlns:xlink="http://www.w3.org/1999/xlink" x="0px" y="0px"
	 viewBox="0 0 16 16" style="enable-background:new 0 0 16 16;" xml:space="preserve">
<style type="text/css">
	.st0{fill:#2F2F2F;}
</style>
<path class="st0" d="M14,1c0.6,0,1,0.4,1,1v12c0,0.6-0.4,1-1,1H2c-0.6,0-1-0.4-1-1V2c0-0.6,0.4-1,1-1H14z M2,0C0.9,0,0,0.9,0,2v12
	c0,1.1,0.9,2,2,2h12c1.1,0,2-0.9,2-2V2c0-1.1-0.9-2-2-2H2z"/>
<path class="st0" d="M6.9,4.6C7,4.8,7,5.2,6.9,5.4c0,0,0,0,0,0L4.2,8l2.6,2.6c0.2,0.2,0.2,0.5,0,0.7s-0.5,0.2-0.7,0l-3-3
	C3,8.2,3,7.8,3.1,7.6c0,0,0,0,0,0l3-3C6.3,4.5,6.7,4.5,6.9,4.6C6.9,4.6,6.9,4.6,6.9,4.6z M9.1,4.6C9,4.8,9,5.2,9.1,5.4c0,0,0,0,0,0
	L11.8,8l-2.6,2.6c-0.2,0.2-0.2,0.5,0,0.7s0.5,0.2,0.7,0l3-3c0.2-0.2,0.2-0.5,0-0.7c0,0,0,0,0,0l-3-3C9.7,4.5,9.3,4.5,9.1,4.6
	C9.1,4.6,9.1,4.6,9.1,4.6z"/>
</svg>
